<svg width="180" height="44" viewBox="0 0 180 44" fill="none" xmlns="http://www.w3.org/2000/svg">
<rect x="0.5" y="0.5" width="179" height="43" rx="1.5" fill="#0061DF"/>
<g clip-path="url(#clip0_1987_17760)">
<path d="M61.0461 14C57.161 14 54 17.161 54 21.0461C54 24.9314 57.161 28.0921 61.0461 28.0921C64.9314 28.0921 68.0921 24.9314 68.0921 21.0461C68.0921 17.161 64.9314 14 61.0461 14ZM61.0461 26.7913C57.8782 26.7913 55.3008 24.214 55.3008 21.0461C55.3008 17.8782 57.8782 15.3008 61.0461 15.3008C64.214 15.3008 66.7913 17.8782 66.7913 21.0461C66.7913 24.214 64.214 26.7913 61.0461 26.7913Z" fill="white"/>
<path d="M69.8094 28.8898L66.0804 25.1608C65.8263 24.9067 65.4148 24.9067 65.1607 25.1608C64.9066 25.4147 64.9066 25.8266 65.1607 26.0805L68.8897 29.8095C69.0168 29.9365 69.1831 30 69.3496 30C69.5159 30 69.6824 29.9365 69.8094 29.8095C70.0635 29.5556 70.0635 29.1437 69.8094 28.8898Z" fill="white"/>
</g>
<path d="M82.298 27.084C81.57 27.084 80.87 26.9673 80.198 26.734C79.5353 26.4913 79.022 26.1833 78.658 25.81L79.064 25.012C79.4093 25.348 79.8713 25.6327 80.45 25.866C81.038 26.09 81.654 26.202 82.298 26.202C82.914 26.202 83.4133 26.1273 83.796 25.978C84.188 25.8193 84.4727 25.6093 84.65 25.348C84.8367 25.0867 84.93 24.7973 84.93 24.48C84.93 24.0973 84.818 23.7893 84.594 23.556C84.3793 23.3227 84.0947 23.1407 83.74 23.01C83.3853 22.87 82.9933 22.7487 82.564 22.646C82.1347 22.5433 81.7053 22.436 81.276 22.324C80.8467 22.2027 80.45 22.044 80.086 21.848C79.7313 21.652 79.442 21.3953 79.218 21.078C79.0033 20.7513 78.896 20.3267 78.896 19.804C78.896 19.3187 79.022 18.8753 79.274 18.474C79.5353 18.0633 79.932 17.7367 80.464 17.494C80.996 17.242 81.6773 17.116 82.508 17.116C83.0587 17.116 83.6047 17.1953 84.146 17.354C84.6873 17.5033 85.154 17.7133 85.546 17.984L85.196 18.81C84.776 18.53 84.328 18.3247 83.852 18.194C83.3853 18.0633 82.9327 17.998 82.494 17.998C81.906 17.998 81.4207 18.0773 81.038 18.236C80.6553 18.3947 80.3707 18.6093 80.184 18.88C80.0067 19.1413 79.918 19.44 79.918 19.776C79.918 20.1587 80.0253 20.4667 80.24 20.7C80.464 20.9333 80.7533 21.1153 81.108 21.246C81.472 21.3767 81.8687 21.4933 82.298 21.596C82.7273 21.6987 83.152 21.8107 83.572 21.932C84.0013 22.0533 84.3933 22.212 84.748 22.408C85.112 22.5947 85.4013 22.8467 85.616 23.164C85.84 23.4813 85.952 23.8967 85.952 24.41C85.952 24.886 85.8213 25.3293 85.56 25.74C85.2987 26.1413 84.8973 26.468 84.356 26.72C83.824 26.9627 83.138 27.084 82.298 27.084ZM91.1213 27.07C90.3559 27.07 89.6839 26.9113 89.1053 26.594C88.5266 26.2673 88.0739 25.824 87.7473 25.264C87.4206 24.6947 87.2573 24.046 87.2573 23.318C87.2573 22.59 87.4113 21.946 87.7193 21.386C88.0366 20.826 88.4659 20.3873 89.0073 20.07C89.5579 19.7433 90.1739 19.58 90.8553 19.58C91.5459 19.58 92.1573 19.7387 92.6893 20.056C93.2306 20.364 93.6553 20.8027 93.9633 21.372C94.2713 21.932 94.4253 22.5807 94.4253 23.318C94.4253 23.3647 94.4206 23.416 94.4113 23.472C94.4113 23.5187 94.4113 23.57 94.4113 23.626H88.0133V22.884H93.8793L93.4873 23.178C93.4873 22.646 93.3706 22.1747 93.1373 21.764C92.9133 21.344 92.6053 21.0173 92.2133 20.784C91.8213 20.5507 91.3686 20.434 90.8553 20.434C90.3513 20.434 89.8986 20.5507 89.4973 20.784C89.0959 21.0173 88.7833 21.344 88.5593 21.764C88.3353 22.184 88.2233 22.6647 88.2233 23.206V23.36C88.2233 23.92 88.3446 24.4147 88.5873 24.844C88.8393 25.264 89.1846 25.5953 89.6233 25.838C90.0713 26.0713 90.5799 26.188 91.1493 26.188C91.5973 26.188 92.0126 26.1087 92.3953 25.95C92.7873 25.7913 93.1233 25.5487 93.4033 25.222L93.9633 25.866C93.6366 26.258 93.2259 26.5567 92.7313 26.762C92.2459 26.9673 91.7093 27.07 91.1213 27.07ZM100.849 27V25.376L100.807 25.11V22.394C100.807 21.7687 100.63 21.288 100.275 20.952C99.9301 20.616 99.4121 20.448 98.7214 20.448C98.2454 20.448 97.7928 20.5273 97.3634 20.686C96.9341 20.8447 96.5701 21.0547 96.2714 21.316L95.8234 20.574C96.1968 20.2567 96.6448 20.014 97.1674 19.846C97.6901 19.6687 98.2408 19.58 98.8194 19.58C99.7714 19.58 100.504 19.818 101.017 20.294C101.54 20.7607 101.801 21.4747 101.801 22.436V27H100.849ZM98.3154 27.07C97.7648 27.07 97.2841 26.9813 96.8734 26.804C96.4721 26.6173 96.1641 26.3653 95.9494 26.048C95.7348 25.7213 95.6274 25.348 95.6274 24.928C95.6274 24.5453 95.7161 24.2 95.8934 23.892C96.0801 23.5747 96.3788 23.3227 96.7894 23.136C97.2094 22.94 97.7694 22.842 98.4694 22.842H101.003V23.584H98.4974C97.7881 23.584 97.2934 23.71 97.0134 23.962C96.7428 24.214 96.6074 24.5267 96.6074 24.9C96.6074 25.32 96.7708 25.656 97.0974 25.908C97.4241 26.16 97.8814 26.286 98.4694 26.286C99.0294 26.286 99.5101 26.16 99.9114 25.908C100.322 25.6467 100.621 25.2733 100.807 24.788L101.031 25.474C100.845 25.9593 100.518 26.3467 100.051 26.636C99.5941 26.9253 99.0154 27.07 98.3154 27.07ZM104.501 27V19.65H105.453V21.652L105.355 21.302C105.561 20.742 105.906 20.3173 106.391 20.028C106.877 19.7293 107.479 19.58 108.197 19.58V20.546C108.16 20.546 108.123 20.546 108.085 20.546C108.048 20.5367 108.011 20.532 107.973 20.532C107.199 20.532 106.592 20.77 106.153 21.246C105.715 21.7127 105.495 22.38 105.495 23.248V27H104.501ZM112.995 27.07C112.267 27.07 111.613 26.9113 111.035 26.594C110.465 26.2673 110.017 25.824 109.691 25.264C109.364 24.6947 109.201 24.046 109.201 23.318C109.201 22.5807 109.364 21.932 109.691 21.372C110.017 20.812 110.465 20.3733 111.035 20.056C111.613 19.7387 112.267 19.58 112.995 19.58C113.62 19.58 114.185 19.7013 114.689 19.944C115.193 20.1867 115.589 20.5507 115.879 21.036L115.137 21.54C114.885 21.1667 114.572 20.8913 114.199 20.714C113.825 20.5367 113.419 20.448 112.981 20.448C112.458 20.448 111.987 20.5693 111.567 20.812C111.147 21.0453 110.815 21.3767 110.573 21.806C110.33 22.2353 110.209 22.7393 110.209 23.318C110.209 23.8967 110.33 24.4007 110.573 24.83C110.815 25.2593 111.147 25.5953 111.567 25.838C111.987 26.0713 112.458 26.188 112.981 26.188C113.419 26.188 113.825 26.0993 114.199 25.922C114.572 25.7447 114.885 25.474 115.137 25.11L115.879 25.614C115.589 26.09 115.193 26.454 114.689 26.706C114.185 26.9487 113.62 27.07 112.995 27.07ZM121.474 19.58C122.071 19.58 122.594 19.6967 123.042 19.93C123.499 20.154 123.854 20.4993 124.106 20.966C124.367 21.4327 124.498 22.0207 124.498 22.73V27H123.504V22.828C123.504 22.0533 123.308 21.47 122.916 21.078C122.533 20.6767 121.992 20.476 121.292 20.476C120.769 20.476 120.312 20.5833 119.92 20.798C119.537 21.0033 119.239 21.3067 119.024 21.708C118.819 22.1 118.716 22.576 118.716 23.136V27H117.722V16.612H118.716V21.666L118.52 21.288C118.753 20.756 119.127 20.3407 119.64 20.042C120.153 19.734 120.765 19.58 121.474 19.58Z" fill="white"/>
<rect x="0.5" y="0.5" width="179" height="43" rx="1.5" stroke="#0061DF"/>
<defs>
<clipPath id="clip0_1987_17760">
<rect width="16" height="16" fill="white" transform="translate(54 14)"/>
</clipPath>
</defs>
</svg>
